<svg xmlns="http://www.w3.org/2000/svg" viewBox="0 0 880 480" role="img" aria-labelledby="title desc"><title id="title">Begrenztes Doppelschichtmodell</title><desc id="desc">Beispielhaft negativer Oberflächenüberschuss im Metall und positiver Überschuss der Nachbarschicht. Gleich große gegenläufige Prozesse im Gleichgewicht. Im Lösungsinneren gleichen sich positive und negative Ladungen aus.</desc><defs><marker id="arrow" viewBox="0 0 10 10" refX="9" refY="5" markerWidth="7" markerHeight="7" orient="auto-start-reverse"><path d="M0 0L10 5L0 10z" fill="#17685c"/></marker><pattern id="pores" width="10" height="10" patternUnits="userSpaceOnUse"><rect width="10" height="10" fill="#ece6d9"/><circle cx="5" cy="5" r="1.8" fill="#7f7765"/></pattern></defs><rect width="100%" height="100%" rx="16" fill="#fbfaf6"/><g font-family="Arial, Helvetica, sans-serif" font-size="20" fill="#183b36"><rect x="50" y="75" width="250" height="305" fill="#b8c5c1"/><rect x="300" y="75" width="515" height="305" fill="#e6f0eb"/><rect x="280" y="75" width="130" height="305" fill="#edd9b4" opacity=".45"/><path d="M300 75V380" stroke="#45665f" stroke-width="3"/><path d="M440 75V380" stroke="#a3b5af" stroke-width="2" stroke-dasharray="6 6"/><text x="175" y="47" font-size="22" text-anchor="middle" fill="#183b36">Metall</text><text x="560" y="47" font-size="22" text-anchor="middle" fill="#183b36">Lösung</text><text x="175" y="414" font-size="18" text-anchor="middle" fill="#183b36">bewegliche Elektronen</text><text x="619" y="414" font-size="18" text-anchor="middle" fill="#183b36">Lösungsinneres nahezu neutral</text><text x="278" y="125" font-size="28" text-anchor="middle" fill="#183b36">−</text><circle cx="351" cy="117" r="18" fill="#fff" stroke="#17685c" stroke-width="2"/><text x="351" y="125" font-size="23" text-anchor="middle" fill="#183b36">+</text><text x="278" y="205" font-size="28" text-anchor="middle" fill="#183b36">−</text><circle cx="351" cy="197" r="18" fill="#fff" stroke="#17685c" stroke-width="2"/><text x="351" y="205" font-size="23" text-anchor="middle" fill="#183b36">+</text><text x="278" y="285" font-size="28" text-anchor="middle" fill="#183b36">−</text><circle cx="351" cy="277" r="18" fill="#fff" stroke="#17685c" stroke-width="2"/><text x="351" y="285" font-size="23" text-anchor="middle" fill="#183b36">+</text><text x="278" y="355" font-size="28" text-anchor="middle" fill="#183b36">−</text><circle cx="351" cy="347" r="18" fill="#fff" stroke="#17685c" stroke-width="2"/><text x="351" y="355" font-size="23" text-anchor="middle" fill="#183b36">+</text><circle cx="520" cy="112" r="17" fill="#fff" stroke="#648279" stroke-width="2"/><text x="520" y="120" font-size="23" text-anchor="middle" fill="#183b36">+</text><circle cx="658" cy="112" r="17" fill="#fff" stroke="#648279" stroke-width="2"/><text x="658" y="120" font-size="23" text-anchor="middle" fill="#183b36">−</text><circle cx="744" cy="181" r="17" fill="#fff" stroke="#648279" stroke-width="2"/><text x="744" y="189" font-size="23" text-anchor="middle" fill="#183b36">+</text><circle cx="520" cy="217" r="17" fill="#fff" stroke="#648279" stroke-width="2"/><text x="520" y="225" font-size="23" text-anchor="middle" fill="#183b36">−</text><circle cx="670" cy="278" r="17" fill="#fff" stroke="#648279" stroke-width="2"/><text x="670" y="286" font-size="23" text-anchor="middle" fill="#183b36">+</text><circle cx="750" cy="340" r="17" fill="#fff" stroke="#648279" stroke-width="2"/><text x="750" y="348" font-size="23" text-anchor="middle" fill="#183b36">−</text><circle cx="533" cy="336" r="17" fill="#fff" stroke="#648279" stroke-width="2"/><text x="533" y="344" font-size="23" text-anchor="middle" fill="#183b36">+</text><circle cx="674" cy="202" r="17" fill="#fff" stroke="#648279" stroke-width="2"/><text x="674" y="210" font-size="23" text-anchor="middle" fill="#183b36">−</text><path d="M196 159H337" stroke="#17685c" stroke-width="2.5" marker-end="url(#arrow)"/><path d="M337 248H196" stroke="#17685c" stroke-width="2.5" marker-end="url(#arrow)"/><text x="190" y="146" font-size="15" text-anchor="end" fill="#183b36">Auflösung</text><text x="190" y="271" font-size="15" text-anchor="end" fill="#183b36">Abscheidung</text><text x="437" y="461" font-size="17" text-anchor="middle" fill="#183b36">Ladungsüberschuss nur im Grenzflächenbereich schematisch hervorgehoben.</text></g></svg>