<svg xmlns="http://www.w3.org/2000/svg" width="800" height="485" viewBox="0 0 800 485" role="img" aria-labelledby="title desc"><title id="title">Kupferkonzentrationszelle im Entlademodell</title><desc id="desc">Links 0,010 molare Kupferionenlösung mit Minuspol und Anode; rechts 0,100 molare Lösung mit Pluspol und Kathode. Der Elektronenfluss bei Entladung verläuft außen von links nach rechts. Die ionenleitende Verbindung ist schematisch.</desc><defs><marker id="arrow" viewBox="0 0 10 10" refX="9" refY="5" markerWidth="7" markerHeight="7" orient="auto-start-reverse"><path d="M0 0 10 5 0 10z" fill="#17685c"/></marker></defs><rect width="100%" height="100%" fill="#fffdf8"/><g font-family="Arial,Helvetica,sans-serif" font-size="19" fill="#233c35"><text x="95" y="40" font-size="23" font-weight="bold">Linke Halbzelle</text><text x="494" y="40" font-size="23" font-weight="bold">Rechte Halbzelle</text><path d="M155 117V76H360M440 76H633V117" stroke="#344c43" fill="none" stroke-width="4"/><rect x="360" y="53" width="80" height="47" rx="8" fill="#deece4" stroke="#526e60"/><text x="400" y="85" text-anchor="middle" font-size="22">V</text>
<path d="M65 175V325Q65 343 83 343H292Q310 343 310 325V175M480 175V325Q480 343 498 343H707Q725 343 725 325V175" fill="none" stroke="#819c91" stroke-width="4"/><path d="M69 217H306V325Q306 339 292 339H83Q69 339 69 325ZM484 217H721V325Q721 339 707 339H498Q484 339 484 325Z" fill="#d4e8f4"/>
<path d="M268 269H363V310H431V269H516" stroke="#b1c7b9" stroke-width="18" fill="none"/><path d="M368 305V315M375 305V315M382 305V315M389 305V315M396 305V315M403 305V315M410 305V315M417 305V315M424 305V315" stroke="#6b8d7b" stroke-width="3"/>
<rect x="139" y="118" width="33" height="157" rx="3" fill="#b96c42"/><rect x="618" y="118" width="33" height="157" rx="3" fill="#b96c42"/><text x="99" y="159">Cu</text><text x="665" y="159">Cu</text><text x="187" y="378" text-anchor="middle">c(Cu²⁺) = 0,010 mol/L</text><text x="603" y="378" text-anchor="middle">c(Cu²⁺) = 0,100 mol/L</text><text x="160" y="419" text-anchor="middle" fill="#17685c">Anode / Minuspol</text><text x="630" y="419" text-anchor="middle" fill="#17685c">Kathode / Pluspol</text><path d="M268 121H525" stroke="#17685c" stroke-width="3" marker-end="url(#arrow)"/><text x="397" y="149" text-anchor="middle" font-size="17">Elektronen bei Entladung</text><text x="400" y="462" text-anchor="middle" font-size="17">Schematischer Ionenweg · Elektronenleitung nur im äußeren Leiter</text></g></svg>